<svg width="108" height="115" viewBox="0 0 108 115" fill="none" xmlns="http://www.w3.org/2000/svg">
<path d="M13.8994 51.0396C13.8994 38.7337 16.4928 25.7852 23.8387 17.0836C31.1846 8.38196 42.6814 4.64001 53.0701 4.64001C63.4588 4.64001 76.3229 9.52853 83.6688 18.2301C91.0148 26.9318 92.2407 38.7337 92.2407 51.0396" stroke="#3C4D7B" stroke-width="4.0391" stroke-linecap="round"/>
<path d="M13.8994 51.0396V83.5193" stroke="#3C4D7B" stroke-width="4.0391"/>
<path d="M92.2407 51.0396V83.5193" stroke="#3C4D7B" stroke-width="4.0391"/>
<path d="M88.4501 81.1993C87.1865 98.5992 80.8644 108.67 50.543 105.559" stroke="#3C4D7B" stroke-width="4.0391" stroke-linecap="round" stroke-linejoin="round"/>
<path d="M50.9491 111.043C54.305 111.043 57.0256 108.493 57.0256 105.348C57.0256 102.203 54.305 99.6537 50.9491 99.6537C47.5931 99.6537 44.8726 102.203 44.8726 105.348C44.8726 108.493 47.5931 111.043 50.9491 111.043Z" fill="#3C4D7B"/>
<path d="M104.703 65.9612C104.703 76.7066 97.2803 85.4174 88.1246 85.4174C78.9689 85.4174 78.5269 76.7066 78.5269 65.9612C78.5269 55.2158 78.9689 46.505 88.1246 46.505C97.2803 46.505 104.703 55.2158 104.703 65.9612Z" fill="#3C4D7B"/>
<rect x="82.2661" y="50.3014" width="6.54392" height="31.3197" rx="3.27196" fill="white"/>
<path d="M0.934666 65.9612C0.934666 76.7066 8.35686 85.4174 17.5126 85.4174C26.6683 85.4174 27.1104 76.7066 27.1104 65.9612C27.1104 55.2158 26.6683 46.505 17.5126 46.505C8.35686 46.505 0.934666 55.2158 0.934666 65.9612Z" fill="#3C4D7B"/>
<rect width="6.54392" height="31.3197" rx="3.27196" transform="matrix(-1 0 0 1 23.3711 50.3014)" fill="white"/>
</svg>
