<svg width="32" height="32" viewBox="0 0 32 32" fill="none" xmlns="http://www.w3.org/2000/svg">
<path d="M10 8.66663V14.6666M10 28V20M22 8.66663V28M21.3334 8.66663H10.6667C6.89602 8.66663 5.00935 8.66663 3.83869 9.83863C2.66669 11.0093 2.66669 12.896 2.66669 16.6666V20C2.66669 23.7706 2.66669 25.6573 3.83869 26.828C5.00935 28 6.89602 28 10.6667 28H21.3334C25.104 28 26.9907 28 28.1614 26.828C29.3334 25.6573 29.3334 23.7706 29.3334 20V16.6666C29.3334 12.896 29.3334 11.0093 28.1614 9.83863C26.9907 8.66663 25.104 8.66663 21.3334 8.66663Z" stroke="#0033FF" stroke-width="3" stroke-linecap="round" stroke-linejoin="round"/>
<path d="M11.3334 8.66667C11.3334 6.79467 11.3334 5.85733 11.7827 5.18533C11.9773 4.89404 12.2274 4.64394 12.5187 4.44933C13.1907 4 14.128 4 16 4C17.872 4 18.8094 4 19.4814 4.44933C19.7727 4.64394 20.0227 4.89404 20.2174 5.18533C20.6667 5.85733 20.6667 6.79467 20.6667 8.66667M12 14.6667H8.00002C7.6464 14.6667 7.30726 14.8071 7.05721 15.0572C6.80716 15.3072 6.66669 15.6464 6.66669 16V18.6667C6.66669 19.0203 6.80716 19.3594 7.05721 19.6095C7.30726 19.8595 7.6464 20 8.00002 20H12C12.3536 20 12.6928 19.8595 12.9428 19.6095C13.1929 19.3594 13.3334 19.0203 13.3334 18.6667V16C13.3334 15.6464 13.1929 15.3072 12.9428 15.0572C12.6928 14.8071 12.3536 14.6667 12 14.6667Z" stroke="#0033FF" stroke-width="3" stroke-linecap="round" stroke-linejoin="round"/>
</svg>
